<?xml version="1.0" encoding="UTF-8"?>
<svg version="1.1" xmlns="http://www.w3.org/2000/svg" width="1563" height="1563">
<path d="M0 0 C515.79 0 1031.58 0 1563 0 C1563 515.79 1563 1031.58 1563 1563 C1047.21 1563 531.42 1563 0 1563 C0 1047.21 0 531.42 0 0 Z " fill="#3975FA" transform="translate(0,0)"/>
<path d="M0 0 C72.93 0 145.86 0 221 0 C221 165.99 221 331.98 221 503 C224.52222903 500.88666258 226.79039603 499.46183129 229.6015625 496.7421875 C230.5752478 495.81079956 230.5752478 495.81079956 231.56860352 494.8605957 C232.24721436 494.20534912 232.9258252 493.55010254 233.625 492.875 C239.86713777 486.93963245 246.2470059 481.35160675 253 476 C254.10332615 475.08415178 255.20478008 474.16604497 256.3046875 473.24609375 C271.57986322 460.57606786 288.41717889 450.15402249 306 441 C306.72413086 440.6189209 307.44826172 440.2378418 308.19433594 439.84521484 C329.14272984 428.95334943 351.8231777 422.1844463 375 418 C376.91039062 417.63261719 376.91039062 417.63261719 378.859375 417.2578125 C453.36674526 405.38218362 544.70533166 431.55632884 604.89941406 475.11376953 C619.91017105 486.26178141 633.63029981 499.13659088 645 514 C645.77730469 515.010625 646.55460937 516.02125 647.35546875 517.0625 C683.20470327 564.84232529 690.52567465 619.28346271 690.34819686 677.30116463 C690.33507883 682.69407688 690.33963694 688.08698043 690.34190369 693.47990417 C690.34346659 702.79342384 690.33416113 712.10687981 690.31719017 721.42038345 C690.29267005 734.88565965 690.28498168 748.35090546 690.2812262 761.81620155 C690.27468197 783.66980281 690.25477626 805.52337022 690.22631836 827.37695312 C690.198725 848.58886551 690.17755178 869.80076861 690.16479492 891.01269531 C690.163983 892.34981744 690.16317088 893.68693956 690.16235858 895.02406168 C690.15610064 905.37871566 690.15024886 915.73336987 690.14449489 926.08802414 C690.11626207 976.72538051 690.05589111 1027.36265201 690 1078 C616.74 1078 543.48 1078 468 1078 C467.97421875 1050.89617187 467.9484375 1023.79234375 467.921875 995.8671875 C467.89670836 978.69530576 467.87056375 961.52343387 467.83984375 944.3515625 C467.82375311 935.32845103 467.80790985 926.30533919 467.79248047 917.28222656 C467.79053653 916.15143268 467.78859259 915.02063879 467.78658974 913.85557842 C467.75562665 895.63475916 467.73861062 877.41395248 467.72680578 859.19311188 C467.71436491 840.47318452 467.68679749 821.75332279 467.64538693 803.03343689 C467.62033539 791.49592753 467.60687661 779.95852713 467.60857043 768.42099018 C467.60860034 760.49350209 467.59384724 752.56612443 467.56783572 744.63867943 C467.55328647 740.07498435 467.54490273 735.51151567 467.55419731 730.94780159 C467.63181683 687.75572673 460.00645861 651.92744253 429 620 C409.62879034 600.56955116 384.93509795 590.90512526 357.74804688 590.81445312 C356.99773193 590.81453369 356.24741699 590.81461426 355.47436523 590.81469727 C353.2034212 590.8125153 350.93296756 590.79432469 348.66210938 590.77539062 C340.59499044 590.74337912 332.874786 591.0688242 325 593 C324.31800537 593.16636963 323.63601074 593.33273926 322.93334961 593.50415039 C300.41925336 599.44133313 281.05137147 611.36784329 264 627 C263.45601562 627.49870605 262.91203125 627.99741211 262.3515625 628.51123047 C241.16216714 648.21463244 224.85794986 674.45670473 222.71953464 703.8558681 C222.61246219 707.94331531 222.59137347 712.02113251 222.60800171 716.10946655 C222.60326623 717.67675376 222.59722141 719.24403746 222.58999789 720.81131518 C222.57405131 725.0739427 222.57637336 729.33638607 222.58191919 733.5990324 C222.58461814 738.21235142 222.56997765 742.82562071 222.55747986 747.43891907 C222.53815972 755.41737043 222.52952196 763.39577467 222.52817917 771.3742485 C222.52613449 782.91064249 222.5066364 794.44695676 222.48278125 805.98332389 C222.44444521 824.70502004 222.41859281 843.42671077 222.40136719 862.1484375 C222.38460324 880.32455198 222.36440601 898.50065471 222.33789062 916.67675781 C222.33544049 918.35914443 222.33544049 918.35914443 222.33294086 920.07551865 C222.31498719 932.31074782 222.29564703 944.5459742 222.27463722 956.7811985 C222.2727958 957.85509229 222.27095438 958.92898607 222.26905716 960.03542209 C222.26167918 964.32701949 222.25428565 968.61861685 222.24671336 972.9102139 C222.22455704 985.48659689 222.20676197 998.06296829 222.19676055 1010.63936712 C222.19039639 1018.51465241 222.1808608 1026.38992926 222.16879199 1034.26520787 C222.16198667 1038.81418734 222.15692782 1043.36315316 222.15620613 1047.91213799 C222.15554181 1052.06888884 222.1504067 1056.22560832 222.14160486 1060.38234968 C222.13924362 1061.89267457 222.13861047 1063.40300326 222.13980167 1064.91332953 C222.141186 1066.95258939 222.13594458 1068.99185065 222.13028526 1071.03110313 C222.12925344 1072.16782884 222.12822161 1073.30455455 222.12715852 1074.47572649 C222 1077 222 1077 221 1078 C148.07 1078 75.14 1078 0 1078 C0 722.26 0 366.52 0 0 Z " fill="#FEFEFE" transform="translate(443,219)"/>
</svg>
