<?xml version="1.0" encoding="UTF-8"?>
<svg version="1.1" xmlns="http://www.w3.org/2000/svg" width="1563" height="1563">
<path d="M0 0 C515.79 0 1031.58 0 1563 0 C1563 515.79 1563 1031.58 1563 1563 C1047.21 1563 531.42 1563 0 1563 C0 1047.21 0 531.42 0 0 Z " fill="#3975FA" transform="translate(0,0)"/>
<path d="M0 0 C18.48 0 36.96 0 56 0 C56 42.57 56 85.14 56 129 C59.63 126.03 63.26 123.06 67 120 C84.34721284 108.24244463 99.78678906 104.62287933 120.73046875 108.3203125 C139.30136479 112.18092888 156.96737546 119.13347174 167.875 135.4375 C178.08708132 152.7619956 177.28083753 170.46211688 177.1953125 189.98828125 C177.19157678 192.50318794 177.18873245 195.01809609 177.18673706 197.53300476 C177.17991786 203.44353317 177.16420441 209.35398396 177.14403808 215.26448077 C177.11538717 223.85109174 177.10505481 232.43772906 177.09242249 241.02437592 C177.07310697 253.01631295 177.03475367 265.00805305 177 277 C158.19 277 139.38 277 120 277 C119.95101562 270.18601562 119.90203125 263.37203125 119.8515625 256.3515625 C119.81615658 252.02212101 119.78018534 247.69269888 119.7421875 243.36328125 C119.68199458 236.49888959 119.62383935 229.63452487 119.578125 222.77001953 C119.54111752 217.23266865 119.49471625 211.6954673 119.44193649 206.15824509 C119.42347447 204.05089326 119.40833664 201.94350948 119.39665604 199.83610916 C119.37965271 196.87316993 119.35058492 193.91056712 119.31884766 190.94775391 C119.31668747 190.08603577 119.31452728 189.22431763 119.31230164 188.33648682 C119.15042546 176.42424048 116.58876286 166.97867655 108.3125 158.125 C100.91882691 153.38188896 92.82408666 150.57215426 84 152 C80.79557891 153.01628889 77.93506294 154.37067106 75 156 C73.989375 156.556875 72.97875 157.11375 71.9375 157.6875 C64.11923527 163.84230415 59.26343522 170.23337593 57 180 C56.22073315 187.39301455 56.39357706 194.86871355 56.390625 202.29296875 C56.37562612 204.45202362 56.35889542 206.61106709 56.34051514 208.77009583 C56.29702135 214.42034463 56.27688242 220.0704387 56.26177979 225.7208252 C56.23868423 232.51762088 56.18627538 239.31424748 56.13883972 246.11090851 C56.07023031 256.40731623 56.03861527 266.7032395 56 277 C37.52 277 19.04 277 0 277 C0 185.59 0 94.18 0 0 Z " fill="#FDFEFE" transform="translate(357,589)"/>
<path d="M0 0 C18.48 0 36.96 0 56 0 C56 42.57 56 85.14 56 129 C59.63 126.03 63.26 123.06 67 120 C80.83051071 110.35080648 93.26326056 106.58988153 110 107 C110.88816406 107.01675781 111.77632812 107.03351563 112.69140625 107.05078125 C129.97793292 107.97448878 149.45457604 115.42542144 161.88671875 127.5859375 C173.13586246 140.43616081 177.3404625 155.0168177 177.22705078 171.76196289 C177.22734283 172.90444489 177.22763489 174.04692688 177.22793579 175.22402954 C177.22655035 178.97365095 177.21102605 182.72306986 177.1953125 186.47265625 C177.19157958 189.08296093 177.18873393 191.69326702 177.18673706 194.30357361 C177.18054324 200.45506186 177.16416112 206.60647825 177.14403808 212.75793499 C177.11940989 220.45514595 177.10852465 228.1523688 177.09765625 235.84960938 C177.07822804 249.56646209 177.03815533 263.28315823 177 277 C158.19 277 139.38 277 120 277 C119.98582031 269.92046875 119.97164062 262.8409375 119.95703125 255.546875 C119.93695874 251.04422167 119.91542658 246.541669 119.88867188 242.0390625 C119.84640476 234.90262958 119.80935092 227.76645198 119.80444336 220.62988281 C119.80014425 214.87191368 119.77154739 209.11451755 119.72656822 203.3567276 C119.71364477 201.16730342 119.70926712 198.9778105 119.71384621 196.78835297 C119.7371403 182.25984163 119.56560615 169.77857015 108.96484375 158.62109375 C102.58498524 153.35739339 94.74847477 151.63145902 86.66015625 151.71484375 C82.29130998 152.18316354 78.80565555 153.8873827 75 156 C73.989375 156.556875 72.97875 157.11375 71.9375 157.6875 C64.1177867 163.84344452 59.27135355 170.23456174 57 180 C56.22259747 187.32012291 56.39357946 194.72267971 56.390625 202.07421875 C56.37562577 204.2108535 56.358895 206.34747674 56.34051514 208.48408508 C56.29702527 214.0751502 56.27688331 219.66605895 56.26177979 225.25726318 C56.23868243 231.98314215 56.18627405 238.70885029 56.13883972 245.4345932 C56.07023469 255.62310647 56.03861614 265.81113033 56 276 C37.52 276 19.04 276 0 276 C0 184.92 0 93.84 0 0 Z " fill="#FEFEFE" transform="translate(921,589)"/>
<path d="M0 0 C23.61171498 -0.57711949 46.49544541 6.31279549 64.30078125 22.16015625 C65.36425781 23.09988281 65.36425781 23.09988281 66.44921875 24.05859375 C80.66966391 37.40728749 86.19018278 55.49656542 89.30078125 74.16015625 C89.30078125 81.09015625 89.30078125 88.02015625 89.30078125 95.16015625 C49.70078125 95.16015625 10.10078125 95.16015625 -30.69921875 95.16015625 C-26.94315184 111.99252365 -26.94315184 111.99252365 -15.7109375 123.0625 C-4.56730098 129.14281429 8.94863728 130.36167167 21.26953125 126.90234375 C29.27644839 123.97673941 34.98779523 120.03807735 41.07421875 114.05078125 C43.37135144 112.10023349 44.37523739 111.54055174 47.30078125 111.16015625 C49.18164062 111.8059082 49.18164062 111.8059082 51.14453125 112.8984375 C51.88727295 113.3020752 52.63001465 113.70571289 53.39526367 114.12158203 C54.18908447 114.56743652 54.98290527 115.01329102 55.80078125 115.47265625 C57.49367996 116.39527196 59.18773222 117.31577354 60.8828125 118.234375 C61.76404785 118.71438965 62.6452832 119.1944043 63.55322266 119.68896484 C68.15012612 122.15039547 72.81748908 124.46787381 77.48828125 126.78515625 C78.36742187 127.22255127 79.2465625 127.65994629 80.15234375 128.1105957 C82.20092414 129.12894501 84.2503487 130.14554285 86.30078125 131.16015625 C74.56604442 150.56349009 57.55129947 164.4258406 35.30078125 170.16015625 C34.11484375 170.50949219 32.92890625 170.85882812 31.70703125 171.21875 C9.25674186 177.36657769 -17.6548125 176.63783665 -38.69921875 166.16015625 C-39.64410156 165.69480469 -40.58898437 165.22945312 -41.5625 164.75 C-47.83114607 161.49862756 -53.28032626 157.66900572 -58.69921875 153.16015625 C-59.2921875 152.70125 -59.88515625 152.24234375 -60.49609375 151.76953125 C-75.44368983 139.83888117 -86.85008011 119.52662449 -89.4140625 100.6328125 C-91.47213151 75.56947895 -86.9607532 53.93660252 -71.09375 33.9609375 C-59.18260598 20.02897949 -45.90710734 10.51319091 -28.69921875 4.16015625 C-27.85101562 3.83273437 -27.0028125 3.5053125 -26.12890625 3.16796875 C-17.66628737 0.23537805 -8.85651626 0.38343946 0 0 Z " fill="#FDFEFE" transform="translate(646.69921875,695.83984375)"/>
<path d="M0 0 C-0.62904667 4.57748194 -2.46952053 8.374391 -4.52734375 12.453125 C-4.87632217 13.15395203 -5.2253006 13.85477905 -5.58485413 14.57684326 C-6.32079128 16.05075205 -7.05973901 17.52316103 -7.80151367 18.99414062 C-8.93856376 21.25211244 -10.06260716 23.51623373 -11.18554688 25.78125 C-11.90287613 27.21392731 -12.62094928 28.64623245 -13.33984375 30.078125 C-13.67636459 30.75723938 -14.01288544 31.43635376 -14.35960388 32.13604736 C-16.77005166 36.88502583 -16.77005166 36.88502583 -19 38 C-20.75823912 37.34403004 -22.48273125 36.59701571 -24.1875 35.8125 C-37.47237906 30.16405973 -53.58069981 25.5712284 -67.9921875 29.8984375 C-70.15603699 30.83786456 -70.15603699 30.83786456 -71 33 C-71.31128861 35.07220839 -71.31128861 35.07220839 -71.375 37.375 C-71.44847656 38.53128906 -71.44847656 38.53128906 -71.5234375 39.7109375 C-70.7305015 43.17855313 -68.93337301 44.08898219 -66 46 C-63.70401807 47.08301035 -61.36522558 48.07796291 -59 49 C-58.33919434 49.2592627 -57.67838867 49.51852539 -56.99755859 49.78564453 C-52.92149639 51.35606696 -48.82858717 52.67851297 -44.625 53.875 C-27.53474966 58.99787602 -9.80352785 67.75120288 -1 84 C-0.56945312 84.77085937 -0.13890625 85.54171875 0.3046875 86.3359375 C5.94867983 98.67487245 4.16812411 115.19710838 0.2734375 127.8203125 C-1.56234511 132.4041378 -3.93156418 136.15602546 -7 140 C-7.5775 140.86625 -8.155 141.7325 -8.75 142.625 C-15.48336833 149.73244434 -23.91254064 153.71639802 -33 157 C-33.82242188 157.29777344 -34.64484375 157.59554687 -35.4921875 157.90234375 C-47.52026157 161.86569275 -60.18256709 162.41547543 -72.75 162.375 C-73.44999115 162.3737915 -74.1499823 162.37258301 -74.8711853 162.37133789 C-96.37473313 162.27090696 -120.84081643 157.50593998 -137 142 C-138 139 -138 139 -136.63232422 136.12426758 C-135.95037392 134.95809466 -135.25697468 133.79857119 -134.5546875 132.64453125 C-134.00435349 131.71383064 -134.00435349 131.71383064 -133.44290161 130.764328 C-132.26309176 128.7745593 -131.06922078 126.79364588 -129.875 124.8125 C-129.09283398 123.49728913 -128.31157348 122.18153928 -127.53125 120.86523438 C-123.76530003 114.52810943 -119.9419308 108.22951714 -116 102 C-112.39529677 103.2941579 -109.70399639 104.84609871 -106.6875 107.1875 C-102.23615132 110.3852309 -97.6896877 112.69748321 -92.6875 114.875 C-92.00582764 115.17301514 -91.32415527 115.47103027 -90.62182617 115.77807617 C-84.59410404 118.32601381 -79.58206742 119.1650545 -73.0625 119.25 C-71.87785156 119.27578125 -70.69320312 119.3015625 -69.47265625 119.328125 C-65.64768189 118.9667101 -63.27453399 117.96858986 -60 116 C-57.62987528 113.09121057 -57.43532533 109.65290898 -57.5859375 105.94921875 C-58.16471819 103.22458137 -59.53729824 101.78708264 -61.78515625 100.2109375 C-69.03240875 96.24859486 -76.81373966 93.42734294 -84.5625 90.625 C-98.82419868 85.1944505 -117.32192328 73.94826016 -123.875 59.375 C-128.35746898 45.92759307 -128.72275057 33.13862261 -123 20 C-115.76296002 5.75090573 -103.78194969 -2.76899107 -88.82421875 -7.72021484 C-60.53223265 -16.01027654 -26.3330977 -13.99987473 0 0 Z " fill="#FDFEFE" transform="translate(889,708)"/>
<path d="M0 0 C4.49258962 2.9237488 8.11390998 5.66885983 11.078125 10.171875 C11.55507812 10.87828125 12.03203125 11.5846875 12.5234375 12.3125 C16.00601577 18.66868111 17.53759892 24.42440586 17.515625 31.671875 C17.5146582 32.45393311 17.51369141 33.23599121 17.51269531 34.04174805 C17.22753752 43.54668239 13.12479789 50.84057121 6.953125 57.921875 C-3.64376912 66.7526201 -12.27518945 69.00520802 -26.046875 67.921875 C-35.51541505 66.14652374 -44.10661059 60.437538 -50.046875 52.921875 C-56.10710472 42.77451361 -58.07112859 32.26574955 -55.24609375 20.62109375 C-50.88226871 9.05920678 -43.14364017 1.23506613 -31.921875 -3.84375 C-20.5837533 -7.88310137 -10.22220589 -5.66823739 0 0 Z " fill="#FDFEFE" transform="translate(1189.046875,802.078125)"/>
<path d="M0 0 C7.24282927 5.80755301 9.39332268 11.37044626 10.69140625 20.45703125 C-9.76859375 20.45703125 -30.22859375 20.45703125 -51.30859375 20.45703125 C-50.30107127 11.38932891 -49.29764257 7.81231687 -43.30859375 1.45703125 C-30.84209349 -7.98844594 -13.1750059 -8.80563 0 0 Z " fill="#3A76FA" transform="translate(669.30859375,738.54296875)"/>
</svg>
